<svg width="3972" height="1512" xmlns="http://www.w3.org/2000/svg" xmlns:xlink="http://www.w3.org/1999/xlink" xml:space="preserve" overflow="hidden"><g transform="translate(-182 -575)"><path d="M185.5 1427.67C185.5 1374 229.003 1330.5 282.667 1330.5L2613.33 1330.5C2667 1330.5 2710.5 1374 2710.5 1427.67L2710.5 1816.33C2710.5 1870 2667 1913.5 2613.33 1913.5L282.667 1913.5C229.003 1913.5 185.5 1870 185.5 1816.33Z" stroke="#042433" stroke-width="6.875" stroke-miterlimit="8" fill="#FCD8D8" fill-rule="evenodd"/><path d="M185.5 676.836C185.5 622.526 229.526 578.5 283.835 578.5L2612.16 578.5C2666.47 578.5 2710.5 622.526 2710.5 676.836L2710.5 1070.16C2710.5 1124.47 2666.47 1168.5 2612.16 1168.5L283.835 1168.5C229.526 1168.5 185.5 1124.47 185.5 1070.16Z" stroke="#042433" stroke-width="6.875" stroke-miterlimit="8" fill="#FFF3F3" fill-rule="evenodd"/><text font-family="Arial,Arial_MSFontService,sans-serif" font-weight="400" font-size="83" transform="matrix(1 0 0 1 289.733 732)">Price Stream TFT</text><text font-family="Arial,Arial_MSFontService,sans-serif" font-weight="400" font-size="83" transform="matrix(1 0 0 1 289.733 1486)">Sentiment Stream TFT</text><path d="M1954.5 1620.33C1954.5 1596.68 1973.68 1577.5 1997.33 1577.5L2595.67 1577.5C2619.32 1577.5 2638.5 1596.68 2638.5 1620.33L2638.5 1791.67C2638.5 1815.32 2619.32 1834.5 2595.67 1834.5L1997.33 1834.5C1973.68 1834.5 1954.5 1815.32 1954.5 1791.67Z" stroke="#042433" stroke-width="6.875" stroke-miterlimit="8" fill="#FFE2CC" fill-rule="evenodd"/><text font-family="Arial,Arial_MSFontService,sans-serif" font-weight="400" font-size="73" transform="matrix(1 0 0 1 2076.23 1688)">Self</text><text font-family="Arial,Arial_MSFontService,sans-serif" font-weight="400" font-size="73" transform="matrix(1 0 0 1 2202.27 1688)">-</text><text font-family="Arial,Arial_MSFontService,sans-serif" font-weight="400" font-size="73" transform="matrix(1 0 0 1 2226.91 1688)">Attention </text><text font-family="Arial,Arial_MSFontService,sans-serif" font-weight="400" font-size="73" transform="matrix(1 0 0 1 2037.85 1776)">Fusion Decoder</text><path d="M1954.5 870.501C1954.5 846.752 1973.75 827.5 1997.5 827.5L2595.5 827.5C2619.25 827.5 2638.5 846.752 2638.5 870.501L2638.5 1042.5C2638.5 1066.25 2619.25 1085.5 2595.5 1085.5L1997.5 1085.5C1973.75 1085.5 1954.5 1066.25 1954.5 1042.5Z" stroke="#042433" stroke-width="6.875" stroke-miterlimit="8" fill="#FFE2CC" fill-rule="evenodd"/><text font-family="Arial,Arial_MSFontService,sans-serif" font-weight="400" font-size="73" transform="matrix(1 0 0 1 2076.23 939)">Self</text><text font-family="Arial,Arial_MSFontService,sans-serif" font-weight="400" font-size="73" transform="matrix(1 0 0 1 2202.27 939)">-</text><text font-family="Arial,Arial_MSFontService,sans-serif" font-weight="400" font-size="73" transform="matrix(1 0 0 1 2226.91 939)">Attention </text><text font-family="Arial,Arial_MSFontService,sans-serif" font-weight="400" font-size="73" transform="matrix(1 0 0 1 2037.85 1027)">Fusion Decoder</text><path d="M1105.5 870.501C1105.5 846.752 1124.75 827.5 1148.5 827.5L1747.5 827.5C1771.25 827.5 1790.5 846.752 1790.5 870.501L1790.5 1042.5C1790.5 1066.25 1771.25 1085.5 1747.5 1085.5L1148.5 1085.5C1124.75 1085.5 1105.5 1066.25 1105.5 1042.5Z" stroke="#042433" stroke-width="6.875" stroke-miterlimit="8" fill="#FFF2CB" fill-rule="evenodd"/><text font-family="Arial,Arial_MSFontService,sans-serif" font-weight="400" font-size="73" transform="matrix(1 0 0 1 1152.85 939)">Variable Selection</text><text font-family="Arial,Arial_MSFontService,sans-serif" font-weight="400" font-size="73" transform="matrix(1 0 0 1 1313.26 1027)">Network</text><path d="M1105.5 1620.33C1105.5 1596.68 1124.68 1577.5 1148.33 1577.5L1747.67 1577.5C1771.32 1577.5 1790.5 1596.68 1790.5 1620.33L1790.5 1791.67C1790.5 1815.32 1771.32 1834.5 1747.67 1834.5L1148.33 1834.5C1124.68 1834.5 1105.5 1815.32 1105.5 1791.67Z" stroke="#042433" stroke-width="6.875" stroke-miterlimit="8" fill="#FFF2CB" fill-rule="evenodd"/><text font-family="Arial,Arial_MSFontService,sans-serif" font-weight="400" font-size="73" transform="matrix(1 0 0 1 1155.57 1688)">Variable Selection</text><text font-family="Arial,Arial_MSFontService,sans-serif" font-weight="400" font-size="73" transform="matrix(1 0 0 1 1313.26 1776)">Network</text><path d="M257.5 870.501C257.5 846.752 276.752 827.5 300.501 827.5L898.499 827.5C922.248 827.5 941.5 846.752 941.5 870.501L941.5 1042.5C941.5 1066.25 922.248 1085.5 898.499 1085.5L300.501 1085.5C276.752 1085.5 257.5 1066.25 257.5 1042.5Z" stroke="#042433" stroke-width="6.875" stroke-miterlimit="8" fill="#FFE2CC" fill-rule="evenodd"/><text font-family="Arial,Arial_MSFontService,sans-serif" font-weight="400" font-size="73" transform="matrix(1 0 0 1 321.995 939)">Input Embedding</text><text font-family="Arial,Arial_MSFontService,sans-serif" font-weight="400" font-size="73" transform="matrix(1 0 0 1 319.978 1027)">&amp; LSTM Encoder</text><path d="M257.5 1621.5C257.5 1597.75 276.752 1578.5 300.501 1578.5L898.499 1578.5C922.248 1578.5 941.5 1597.75 941.5 1621.5L941.5 1793.5C941.5 1817.25 922.248 1836.5 898.499 1836.5L300.501 1836.5C276.752 1836.5 257.5 1817.25 257.5 1793.5Z" stroke="#042433" stroke-width="6.875" stroke-miterlimit="8" fill="#FFE2CC" fill-rule="evenodd"/><text font-family="Arial,Arial_MSFontService,sans-serif" font-weight="400" font-size="73" transform="matrix(1 0 0 1 321.995 1690)">Input Embedding</text><text font-family="Arial,Arial_MSFontService,sans-serif" font-weight="400" font-size="73" transform="matrix(1 0 0 1 319.978 1778)">&amp; LSTM Encoder</text><path d="M941.5 951.917 1082.69 951.917 1082.69 961.084 941.5 961.083ZM1078.11 942.75 1105.61 956.501 1078.11 970.25Z"/><path d="M0.0397706-4.58316 141.235-3.35793 141.156 5.80839-0.0397706 4.58316ZM136.731-12.564 164.111 1.42408 136.493 14.9349Z" transform="matrix(1 0 0 -1 941.5 1706.92)"/><path d="M1790.5 951.917 1931.69 951.917 1931.69 961.084 1790.5 961.083ZM1927.11 942.75 1954.61 956.501 1927.11 970.25Z"/><path d="M1790.5 1700.92 1931.69 1700.92 1931.69 1710.08 1790.5 1710.08ZM1927.11 1691.75 1954.61 1705.5 1927.11 1719.25Z"/><path d="M3394.33 1913.5C3361.84 1913.5 3335.5 1887.16 3335.5 1854.67L3335.5 637.334C3335.5 604.841 3361.84 578.5 3394.33 578.5L3629.67 578.5C3662.16 578.5 3688.5 604.841 3688.5 637.334L3688.5 1854.67C3688.5 1887.16 3662.16 1913.5 3629.67 1913.5Z" stroke="#042433" stroke-width="6.875" stroke-miterlimit="8" fill="#FFE2CC" fill-rule="evenodd"/><text font-family="Arial,Arial_MSFontService,sans-serif" font-weight="400" font-size="83" transform="matrix(-1.83697e-16 -1 1 -1.83697e-16 3489.01 1739)">Fusion Gate (α calculation)</text><text font-family="Arial,Arial_MSFontService,sans-serif" font-weight="400" font-size="83" transform="matrix(-1.83697e-16 -1 1 -1.83697e-16 3595 1518)">α=σ(W·[</text><text font-family="Arial,Arial_MSFontService,sans-serif" font-weight="400" font-size="83" transform="matrix(-1.83697e-16 -1 1 -1.83697e-16 3595 1216)">yp,ys</text><text font-family="Arial,Arial_MSFontService,sans-serif" font-weight="400" font-size="83" transform="matrix(-1.83697e-16 -1 1 -1.83697e-16 3595 1023)">])</text><text font-family="Arial,Arial_MSFontService,sans-serif" font-weight="400" font-size="83" transform="matrix(1 0 0 1 3421.84 2018)">Gate</text><path d="M0.0147732-4.58331 673.296-2.41315 673.267 6.75347-0.0147732 4.58331ZM668.743-11.5945 696.199 2.24403 668.655 15.9053Z" transform="matrix(1 0 0 -1 2638.5 956.744)"/><path d="M2638.5 1700.92 3311.78 1700.92 3311.78 1710.08 2638.5 1710.08ZM3307.2 1691.75 3334.7 1705.5 3307.2 1719.25Z"/><text font-family="Arial,Arial_MSFontService,sans-serif" font-weight="400" font-size="83" transform="matrix(1 0 0 1 2758.82 908)">yp</text><text font-family="Arial,Arial_MSFontService,sans-serif" font-weight="400" font-size="83" transform="matrix(1 0 0 1 2845.9 908)">(Price Pred)</text><text font-family="Arial,Arial_MSFontService,sans-serif" font-weight="400" font-size="83" transform="matrix(1 0 0 1 2765.33 1651)">ys</text><text font-family="Arial,Arial_MSFontService,sans-serif" font-weight="400" font-size="83" transform="matrix(1 0 0 1 2847.83 1651)">(Sent Pred)</text><path d="M3688.5 1241.92 3865.36 1241.92 3865.36 1251.08 3688.5 1251.08ZM3860.77 1232.75 3888.27 1246.5 3860.77 1260.25Z"/><path d="M3932.17 1665.5C3908.05 1665.5 3888.5 1645.95 3888.5 1621.83L3888.5 871.168C3888.5 847.051 3908.05 827.5 3932.17 827.5L4106.83 827.5C4130.95 827.5 4150.5 847.051 4150.5 871.168L4150.5 1621.83C4150.5 1645.95 4130.95 1665.5 4106.83 1665.5Z" stroke="#042433" stroke-width="6.875" stroke-miterlimit="8" fill="#FFE2CC" fill-rule="evenodd"/><text font-family="Arial,Arial_MSFontService,sans-serif" font-weight="400" font-size="83" transform="matrix(-1.83697e-16 -1 1 -1.83697e-16 4049.14 1556)">ŷ</text><text font-family="Arial,Arial_MSFontService,sans-serif" font-weight="400" font-size="83" transform="matrix(-1.83697e-16 -1 1 -1.83697e-16 4049.14 1515)"> </text><text font-family="Arial,Arial_MSFontService,sans-serif" font-weight="400" font-size="83" transform="matrix(-1.83697e-16 -1 1 -1.83697e-16 4049.14 1492)">​=α</text><text font-family="Cambria Math,Cambria Math_MSFontService,sans-serif" font-weight="400" font-size="83" transform="matrix(-1.83697e-16 -1 1 -1.83697e-16 4049.14 1396)">⋅</text><text font-family="Arial,Arial_MSFontService,sans-serif" font-weight="400" font-size="83" transform="matrix(-1.83697e-16 -1 1 -1.83697e-16 4049.14 1373)">yp</text><text font-family="Arial,Arial_MSFontService,sans-serif" font-weight="400" font-size="83" transform="matrix(-1.83697e-16 -1 1 -1.83697e-16 4049.14 1286)">​+(</text><text font-family="Arial,Arial_MSFontService,sans-serif" font-weight="400" font-size="83" transform="matrix(-1.83697e-16 -1 1 -1.83697e-16 4049.14 1210)">1</text><text font-family="Arial,Arial_MSFontService,sans-serif" font-weight="400" font-size="83" transform="matrix(-1.83697e-16 -1 1 -1.83697e-16 4049.14 1164)">−</text><text font-family="Arial,Arial_MSFontService,sans-serif" font-weight="400" font-size="83" transform="matrix(-1.83697e-16 -1 1 -1.83697e-16 4049.14 1116)">α)</text><text font-family="Cambria Math,Cambria Math_MSFontService,sans-serif" font-weight="400" font-size="83" transform="matrix(-1.83697e-16 -1 1 -1.83697e-16 4049.14 1041)">⋅</text><text font-family="Arial,Arial_MSFontService,sans-serif" font-weight="400" font-size="83" transform="matrix(-1.83697e-16 -1 1 -1.83697e-16 4049.14 1018)">ys</text></g></svg>